<svg width="1440" height="1024" viewBox="0 0 1440 1024" fill="none" xmlns="http://www.w3.org/2000/svg">
<path d="M189 731L714.5 755.5L1240 731C1240 731 1240 740.798 1228 812.542C1216 884.286 1198.5 894.084 1198.5 894.084C1198.5 894.084 997.5 920 715 920C432.5 920 231.5 894.084 231.5 894.084C231.5 894.084 217.5 890.291 203.25 816.967C189 743.642 189 731 189 731Z" fill="url(#paint0_linear_2073_2)"/>
<g filter="url(#filter0_i_2073_2)">
<path d="M221 271H1210C1210 271 1210 262.483 1198.71 200.119C1187.42 137.755 1170.95 129.239 1170.95 129.239C1170.95 129.239 1084.91 117.536 930.5 111C930.5 129.239 790.207 142.151 715.971 142.151C641.735 142.151 502.5 142.151 502.5 111C348.094 117.536 260.993 129.239 260.993 129.239C260.993 129.239 247.819 132.535 234.409 196.273C221 260.011 221 271 221 271Z" fill="#E85C54"/>
</g>
<g filter="url(#filter1_i_2073_2)">
<path d="M182 300.001L273.541 278.91L713.749 267.978L1142.95 278.91L1263.09 300.001C1263.09 300.001 1239.5 284.22 1227.49 213.319C1215.49 142.418 1197.98 132.735 1197.98 132.735C1197.98 132.735 1093.52 119.431 929.352 112C914.345 142.105 793.177 147.415 714.25 147.415C635.322 147.415 499.148 147.415 499.148 112C334.984 119.431 230.52 132.735 230.52 132.735C230.52 132.735 216.514 136.483 202.257 208.946C188 281.409 182 300.001 182 300.001Z" fill="url(#paint1_linear_2073_2)"/>
</g>
<path d="M185.119 310.839L183.197 301.025L180.869 301.481L178.994 302.934L185.119 310.839ZM185.119 310.839C183.197 301.025 183.2 301.025 183.203 301.024L183.213 301.022L183.243 301.016L183.349 300.996C183.44 300.978 183.57 300.953 183.741 300.921C184.082 300.857 184.583 300.763 185.245 300.643C186.57 300.401 188.542 300.052 191.171 299.609C196.43 298.724 204.321 297.467 214.937 295.963C236.169 292.954 268.304 288.955 312.089 284.961C399.66 276.972 533.835 269 720.603 269C907.371 269 1041.19 276.972 1128.4 284.961C1172.01 288.956 1203.96 292.955 1225.06 295.964C1235.61 297.469 1243.45 298.726 1248.67 299.611C1251.28 300.054 1253.24 300.404 1254.55 300.645C1255.21 300.766 1255.71 300.859 1256.05 300.924C1256.06 300.926 1256.06 300.927 1256.07 300.929C1256.3 300.957 1256.55 300.993 1256.8 301.038C1257.68 301.192 1258.69 301.451 1259.81 301.869C1262.06 302.713 1264.59 304.149 1267.23 306.462C1272.45 311.037 1278.02 318.932 1283.17 332.462C1293.42 359.378 1303 411.216 1303 512.289C1303 613.363 1293.42 665.201 1283.17 692.117C1278.02 705.646 1272.45 713.542 1267.23 718.117C1264.59 720.43 1262.06 721.866 1259.81 722.71C1258.69 723.128 1257.68 723.387 1256.8 723.541C1256.57 723.582 1256.35 723.615 1256.14 723.642C1256.1 723.647 1256.05 723.652 1256.01 723.657C1255.99 723.662 1255.96 723.666 1255.94 723.67C1255.59 723.733 1255.08 723.824 1254.4 723.942C1253.05 724.178 1251.04 724.521 1248.36 724.955C1243 725.823 1234.97 727.056 1224.2 728.532C1202.66 731.484 1170.18 735.409 1126.22 739.331C1038.3 747.173 904.495 755 720.603 755C536.711 755 402.545 747.173 314.27 739.331C270.133 735.41 237.469 731.485 215.799 728.533C204.964 727.057 196.878 725.824 191.48 724.957C188.781 724.523 186.754 724.181 185.392 723.945C184.711 723.827 184.197 723.736 183.847 723.673C183.672 723.641 183.539 723.617 183.446 723.6L183.339 723.581L183.308 723.575L183.299 723.573C183.295 723.573 183.293 723.572 185.119 713.74M185.119 310.839C178.994 302.934 178.98 302.945 178.967 302.955L178.94 302.977L178.883 303.022C178.844 303.052 178.804 303.085 178.762 303.119C178.678 303.188 178.588 303.264 178.491 303.347C178.298 303.514 178.08 303.711 177.84 303.941C177.359 304.401 176.789 304.995 176.144 305.748C174.854 307.254 173.267 309.397 171.493 312.397C167.954 318.382 163.635 327.842 159.44 342.624C151.066 372.13 143 423.499 143 512.289C143 601.08 151.066 652.449 159.44 681.955C163.635 696.737 167.954 706.197 171.493 712.182C173.267 715.182 174.854 717.324 176.144 718.831C176.789 719.584 177.359 720.177 177.84 720.638C178.08 720.868 178.298 721.065 178.491 721.232C178.588 721.315 178.678 721.391 178.762 721.46C178.804 721.494 178.844 721.526 178.883 721.557L178.94 721.602L178.967 721.624C178.98 721.634 178.994 721.645 185.119 713.74M185.119 713.74L178.994 721.645L180.91 723.129L183.293 723.572L185.119 713.74Z" stroke="#E54536" stroke-width="20"/>
<defs>
<filter id="filter0_i_2073_2" x="221" y="111" width="989" height="164" filterUnits="userSpaceOnUse" color-interpolation-filters="sRGB">
<feFlood flood-opacity="0" result="BackgroundImageFix"/>
<feBlend mode="normal" in="SourceGraphic" in2="BackgroundImageFix" result="shape"/>
<feColorMatrix in="SourceAlpha" type="matrix" values="0 0 0 0 0 0 0 0 0 0 0 0 0 0 0 0 0 0 127 0" result="hardAlpha"/>
<feOffset dy="4"/>
<feGaussianBlur stdDeviation="2"/>
<feComposite in2="hardAlpha" operator="arithmetic" k2="-1" k3="1"/>
<feColorMatrix type="matrix" values="0 0 0 0 0 0 0 0 0 0 0 0 0 0 0 0 0 0 0.25 0"/>
<feBlend mode="normal" in2="shape" result="effect1_innerShadow_2073_2"/>
</filter>
<filter id="filter1_i_2073_2" x="182" y="112" width="1081.09" height="192.001" filterUnits="userSpaceOnUse" color-interpolation-filters="sRGB">
<feFlood flood-opacity="0" result="BackgroundImageFix"/>
<feBlend mode="normal" in="SourceGraphic" in2="BackgroundImageFix" result="shape"/>
<feColorMatrix in="SourceAlpha" type="matrix" values="0 0 0 0 0 0 0 0 0 0 0 0 0 0 0 0 0 0 127 0" result="hardAlpha"/>
<feOffset dy="4"/>
<feGaussianBlur stdDeviation="2"/>
<feComposite in2="hardAlpha" operator="arithmetic" k2="-1" k3="1"/>
<feColorMatrix type="matrix" values="0 0 0 0 0 0 0 0 0 0 0 0 0 0 0 0 0 0 0.25 0"/>
<feBlend mode="normal" in2="shape" result="effect1_innerShadow_2073_2"/>
</filter>
<linearGradient id="paint0_linear_2073_2" x1="714.5" y1="920" x2="714.5" y2="731" gradientUnits="userSpaceOnUse">
<stop stop-color="#DA3327"/>
<stop offset="1" stop-color="#2E201F"/>
</linearGradient>
<linearGradient id="paint1_linear_2073_2" x1="1239.5" y1="202.951" x2="188" y2="202.951" gradientUnits="userSpaceOnUse">
<stop stop-color="#CE392D"/>
<stop offset="1" stop-color="#681D17"/>
</linearGradient>
</defs>
</svg>
