<svg width="1440" height="1024" viewBox="0 0 1440 1024" fill="none" xmlns="http://www.w3.org/2000/svg">
<path d="M188.5 670L714 680.5L1239.5 670C1239.5 670 1239.5 685.5 1227.5 799C1215.5 912.5 1198 928 1198 928C1198 928 997 969 714.5 969C432 969 231 928 231 928C231 928 217 922 202.75 806C188.5 690 188.5 670 188.5 670Z" fill="url(#paint0_linear_2061_8409)"/>
<g filter="url(#filter0_i_2061_8409)">
<path d="M221 311H1210C1210 311 1210 297.373 1198.71 197.591C1187.42 97.8086 1170.95 84.1819 1170.95 84.1819C1170.95 84.1819 1084.91 65.4577 930.5 55C930.5 84.1819 790.207 104.842 715.971 104.842C641.734 104.842 502.5 104.842 502.5 55C348.094 65.4577 260.993 84.1819 260.993 84.1819C260.993 84.1819 247.819 89.4568 234.409 191.437C221 293.417 221 311 221 311Z" fill="#E85C54"/>
</g>
<g filter="url(#filter1_i_2061_8409)">
<path d="M188.5 323H274L714 305.5L1143 323H1242C1242 323 1239.5 331.5 1227.5 218C1215.5 104.5 1198 89 1198 89C1198 89 1093.59 67.7017 929.5 55.8063C914.5 104 793.39 112.5 714.5 112.5C635.61 112.5 499.5 112.5 499.5 55.8063C335.414 67.7017 231 89 231 89C231 89 217 95 202.75 211C188.5 327 188.5 323 188.5 323Z" fill="url(#paint1_linear_2061_8409)"/>
</g>
<path d="M185.119 340.528L183.627 330.64L181.682 330.933L179.993 331.942L185.119 340.528ZM185.119 340.528C183.627 330.64 183.629 330.64 183.632 330.639L183.641 330.638L183.67 330.634L183.772 330.618C183.861 330.605 183.989 330.586 184.157 330.562C184.493 330.513 184.989 330.442 185.647 330.349C186.963 330.165 188.925 329.897 191.545 329.557C196.785 328.878 204.657 327.911 215.255 326.755C236.45 324.441 268.548 321.363 312.297 318.289C399.795 312.139 533.9 306 720.603 306C907.306 306 1041.05 312.139 1128.19 318.289C1171.76 321.364 1203.68 324.441 1224.74 326.755C1235.28 327.912 1243.09 328.879 1248.29 329.558C1250.9 329.898 1252.84 330.166 1254.15 330.351C1254.8 330.443 1255.29 330.515 1255.63 330.564C1255.66 330.569 1255.7 330.574 1255.73 330.578C1255.94 330.597 1256.17 330.622 1256.42 330.656C1257.16 330.757 1258.06 330.931 1259.07 331.224C1261.12 331.815 1263.56 332.863 1266.23 334.662C1271.58 338.272 1277.41 344.62 1282.79 355.497C1293.4 376.971 1303 417.623 1303 495.723C1303 573.823 1293.4 614.475 1282.79 635.949C1277.41 646.826 1271.58 653.174 1266.23 656.784C1263.56 658.583 1261.12 659.631 1259.07 660.222C1258.06 660.515 1257.16 660.689 1256.42 660.79C1256.15 660.826 1255.91 660.853 1255.68 660.872L1255.54 660.891C1255.2 660.939 1254.69 661.009 1254.02 661.099C1252.67 661.28 1250.67 661.543 1248 661.876C1242.66 662.542 1234.64 663.49 1223.89 664.626C1202.39 666.896 1169.94 669.917 1126.02 672.935C1038.17 678.972 904.43 685 720.603 685C536.776 685 402.678 678.972 314.472 672.936C270.37 669.917 237.74 666.897 216.105 664.626C205.288 663.491 197.219 662.543 191.838 661.877C189.148 661.544 187.13 661.281 185.776 661.101C185.1 661.01 184.589 660.941 184.244 660.893C184.071 660.869 183.94 660.851 183.85 660.838L183.745 660.823L183.716 660.819L183.708 660.818C183.705 660.817 183.703 660.817 185.119 650.918M185.119 340.528C179.993 331.942 179.98 331.95 179.967 331.958L179.939 331.974L179.883 332.009C179.844 332.032 179.804 332.057 179.762 332.084C179.678 332.137 179.586 332.196 179.488 332.262C179.291 332.392 179.068 332.548 178.82 332.731C178.323 333.098 177.728 333.575 177.052 334.183C175.697 335.401 174.029 337.136 172.168 339.561C168.447 344.408 163.98 351.978 159.676 363.662C151.096 386.951 143 427.031 143 495.723C143 564.415 151.096 604.495 159.676 627.784C163.98 639.468 168.447 647.038 172.168 651.885C174.029 654.31 175.697 656.045 177.052 657.263C177.728 657.871 178.323 658.348 178.82 658.715C179.068 658.898 179.291 659.054 179.488 659.184C179.586 659.25 179.678 659.309 179.762 659.362C179.804 659.389 179.844 659.414 179.883 659.437L179.939 659.472L179.967 659.488C179.98 659.496 179.993 659.504 185.119 650.918M185.119 650.918L179.993 659.504L181.716 660.533L183.703 660.817L185.119 650.918Z" stroke="#E54536" stroke-width="20"/>
<defs>
<filter id="filter0_i_2061_8409" x="221" y="55" width="989" height="260" filterUnits="userSpaceOnUse" color-interpolation-filters="sRGB">
<feFlood flood-opacity="0" result="BackgroundImageFix"/>
<feBlend mode="normal" in="SourceGraphic" in2="BackgroundImageFix" result="shape"/>
<feColorMatrix in="SourceAlpha" type="matrix" values="0 0 0 0 0 0 0 0 0 0 0 0 0 0 0 0 0 0 127 0" result="hardAlpha"/>
<feOffset dy="4"/>
<feGaussianBlur stdDeviation="2"/>
<feComposite in2="hardAlpha" operator="arithmetic" k2="-1" k3="1"/>
<feColorMatrix type="matrix" values="0 0 0 0 0 0 0 0 0 0 0 0 0 0 0 0 0 0 0.25 0"/>
<feBlend mode="normal" in2="shape" result="effect1_innerShadow_2061_8409"/>
</filter>
<filter id="filter1_i_2061_8409" x="188.5" y="55.8063" width="1053.5" height="271.338" filterUnits="userSpaceOnUse" color-interpolation-filters="sRGB">
<feFlood flood-opacity="0" result="BackgroundImageFix"/>
<feBlend mode="normal" in="SourceGraphic" in2="BackgroundImageFix" result="shape"/>
<feColorMatrix in="SourceAlpha" type="matrix" values="0 0 0 0 0 0 0 0 0 0 0 0 0 0 0 0 0 0 127 0" result="hardAlpha"/>
<feOffset dy="4"/>
<feGaussianBlur stdDeviation="2"/>
<feComposite in2="hardAlpha" operator="arithmetic" k2="-1" k3="1"/>
<feColorMatrix type="matrix" values="0 0 0 0 0 0 0 0 0 0 0 0 0 0 0 0 0 0 0.25 0"/>
<feBlend mode="normal" in2="shape" result="effect1_innerShadow_2061_8409"/>
</filter>
<linearGradient id="paint0_linear_2061_8409" x1="714" y1="969" x2="714" y2="670" gradientUnits="userSpaceOnUse">
<stop stop-color="#DA3327"/>
<stop offset="1" stop-color="#2E201F"/>
</linearGradient>
<linearGradient id="paint1_linear_2061_8409" x1="1239.5" y1="201.403" x2="188.5" y2="201.403" gradientUnits="userSpaceOnUse">
<stop stop-color="#CE392D"/>
<stop offset="1" stop-color="#681D17"/>
</linearGradient>
</defs>
</svg>
